<svg width="28" height="25" viewBox="0 0 28 25" fill="none" xmlns="http://www.w3.org/2000/svg">
<path d="M20.7207 1C24.1879 1 27 3.81205 27 7.2793V7.4209C27 10.1211 25.2867 13.2028 22.9033 16.0977C20.5545 18.9504 17.7067 21.4406 15.7529 22.9316C15.2623 23.3036 14.6473 23.5 14 23.5C13.3461 23.5 12.731 23.306 12.2539 22.9375L12.25 22.9336L11.4775 22.3291C9.59113 20.8146 7.15277 18.5949 5.09668 16.0977C2.71328 13.2028 1 10.1211 1 7.4209V7.2793C1 3.81205 3.81205 1 7.2793 1C9.29404 1.00012 11.1905 1.96757 12.3691 3.59863L12.3701 3.59961L13.1904 4.73242L14 5.84961L14.8096 4.73242L15.6299 3.59961L15.6309 3.59863C16.8095 1.96757 18.706 1.00013 20.7207 1Z" stroke="white" stroke-width="2"/>
<path d="M20.7207 1C24.1879 1 27 3.81205 27 7.2793V7.4209C27 10.1211 25.2867 13.2028 22.9033 16.0977C20.5545 18.9504 17.7067 21.4406 15.7529 22.9316C15.2623 23.3036 14.6473 23.5 14 23.5C13.3461 23.5 12.731 23.306 12.2539 22.9375L12.25 22.9336L11.4775 22.3291C9.59113 20.8146 7.15277 18.5949 5.09668 16.0977C2.71328 13.2028 1 10.1211 1 7.4209V7.2793C1 3.81205 3.81205 1 7.2793 1C9.29404 1.00012 11.1905 1.96757 12.3691 3.59863L12.3701 3.59961L13.1904 4.73242L14 5.84961L14.8096 4.73242L15.6299 3.59961L15.6309 3.59863C16.8095 1.96757 18.706 1.00013 20.7207 1Z" stroke="white" stroke-width="2"/>
<path d="M20.7207 1C24.1879 1 27 3.81205 27 7.2793V7.4209C27 10.1211 25.2867 13.2028 22.9033 16.0977C20.5545 18.9504 17.7067 21.4406 15.7529 22.9316C15.2623 23.3036 14.6473 23.5 14 23.5C13.3461 23.5 12.731 23.306 12.2539 22.9375L12.25 22.9336L11.4775 22.3291C9.59113 20.8146 7.15277 18.5949 5.09668 16.0977C2.71328 13.2028 1 10.1211 1 7.4209V7.2793C1 3.81205 3.81205 1 7.2793 1C9.29404 1.00012 11.1905 1.96757 12.3691 3.59863L12.3701 3.59961L13.1904 4.73242L14 5.84961L14.8096 4.73242L15.6299 3.59961L15.6309 3.59863C16.8095 1.96757 18.706 1.00013 20.7207 1Z" stroke="white" stroke-width="2"/>
<path d="M20.7207 1C24.1879 1 27 3.81205 27 7.2793V7.4209C27 10.1211 25.2867 13.2028 22.9033 16.0977C20.5545 18.9504 17.7067 21.4406 15.7529 22.9316C15.2623 23.3036 14.6473 23.5 14 23.5C13.3461 23.5 12.731 23.306 12.2539 22.9375L12.25 22.9336L11.4775 22.3291C9.59113 20.8146 7.15277 18.5949 5.09668 16.0977C2.71328 13.2028 1 10.1211 1 7.4209V7.2793C1 3.81205 3.81205 1 7.2793 1C9.29404 1.00012 11.1905 1.96757 12.3691 3.59863L12.3701 3.59961L13.1904 4.73242L14 5.84961L14.8096 4.73242L15.6299 3.59961L15.6309 3.59863C16.8095 1.96757 18.706 1.00013 20.7207 1Z" stroke="white" stroke-width="2"/>
</svg>
