<svg width="29" height="28" viewBox="0 0 29 28" fill="none" xmlns="http://www.w3.org/2000/svg">
<path d="M23.5637 11.1663C23.5637 13.6304 22.7197 15.9067 21.2979 17.7534L28.469 24.5552C29.177 25.2263 29.177 26.316 28.469 26.9871C27.7609 27.6581 26.6111 27.6581 25.903 26.9871L18.732 20.1853C16.7834 21.5328 14.3818 22.3327 11.7818 22.3327C5.2735 22.3327 0 17.3347 0 11.1663C0 4.99801 5.2735 0 11.7818 0C18.2902 0 23.5637 4.99801 23.5637 11.1663ZM11.7818 18.8969C16.285 18.8969 19.9385 15.4342 19.9385 11.1663C19.9385 6.89843 16.285 3.43579 11.7818 3.43579C7.27868 3.43579 3.62518 6.89843 3.62518 11.1663C3.62518 15.4342 7.27868 18.8969 11.7818 18.8969Z" fill="#636363"/>
</svg>
