<svg width="52" height="50" viewBox="0 0 52 50" fill="none" xmlns="http://www.w3.org/2000/svg">
<path d="M25.457 2.82324C25.5838 2.47019 26.0832 2.4702 26.21 2.82324L31.1094 16.4648C31.3338 17.0892 31.9206 17.5104 32.584 17.5234L47.4365 17.8164C47.8189 17.8241 47.9734 18.3128 47.665 18.5391L35.8818 27.1836C35.3305 27.5881 35.0977 28.2985 35.3018 28.9512L39.5947 42.6855C39.7073 43.0461 39.3037 43.3473 38.9902 43.1367L26.7266 34.8789C26.1863 34.5152 25.4797 34.5151 24.9395 34.8789L12.6768 43.1367C12.3633 43.3476 11.9589 43.0461 12.0713 42.6855L16.3652 28.9512C16.5693 28.2985 16.3355 27.5881 15.7842 27.1836L4.00195 18.5391C3.69352 18.3128 3.848 17.8239 4.23047 17.8164L19.083 17.5234C19.7462 17.5103 20.3322 17.089 20.5566 16.4648L25.457 2.82324Z" fill="url(#paint0_linear_403_306)" stroke="#E8000B" stroke-width="1.2"/>
<defs>
<linearGradient id="paint0_linear_403_306" x1="25.8333" y1="0" x2="25.8333" y2="50" gradientUnits="userSpaceOnUse">
<stop offset="0.5625" stop-color="#FFFFF6"/>
<stop offset="0.596154" stop-color="#E8000B"/>
</linearGradient>
</defs>
</svg>
