<svg width="23" height="22" viewBox="0 0 23 22" fill="none" xmlns="http://www.w3.org/2000/svg">
<path d="M10.3932 0.660529C10.7109 -0.220652 11.9571 -0.220653 12.2747 0.660528L14.3923 6.53491C14.5328 6.9247 14.8991 7.18747 15.3134 7.19561L21.686 7.32083C22.6431 7.33964 23.0293 8.56297 22.2566 9.12791L17.2384 12.7966C16.8925 13.0494 16.7462 13.4944 16.8744 13.9032L18.711 19.757C18.9938 20.6584 17.9842 21.4131 17.1997 20.8867L11.8912 17.3247C11.5541 17.0985 11.1138 17.0985 10.7768 17.3247L5.46831 20.8867C4.6838 21.4131 3.67416 20.6584 3.95698 19.757L5.79355 13.9032C5.9218 13.4944 5.77543 13.0494 5.42959 12.7966L0.411393 9.12792C-0.361378 8.56297 0.0248458 7.33964 0.981919 7.32083L7.35458 7.19561C7.76884 7.18747 8.13517 6.9247 8.27568 6.53491L10.3932 0.660529Z" fill="#E8000B"/>
</svg>
