<svg width="35" height="49" viewBox="0 0 35 49" fill="none" xmlns="http://www.w3.org/2000/svg">
<path d="M2.10342 24.897C4.01562 32.1187 12.8496 42.2217 17.49 47.001C22.6189 42.2217 30.6445 31.1218 32.8766 24.897C35.6237 17.2363 34.3335 1.67745 17.4901 1.00098C1.36353 1.67745 -0.827361 17.1308 2.10342 24.897Z" fill="url(#paint0_linear_403_228)" stroke="#E8000B" stroke-width="2"/>
<path d="M16.9121 8.74805C17.1102 8.19642 17.8898 8.19641 18.0879 8.74805L20.5586 15.625C20.7513 16.1616 21.2552 16.5238 21.8252 16.5352L29.2803 16.6826C29.8776 16.6947 30.1194 17.458 29.6377 17.8115L23.751 22.1299C23.2771 22.4775 23.0766 23.0885 23.252 23.6494L25.4023 30.5293C25.5783 31.093 24.9469 31.5633 24.457 31.2334L18.2676 27.0664C17.8034 26.7539 17.1966 26.7539 16.7324 27.0664L10.543 31.2334C10.0531 31.5633 9.42165 31.093 9.59766 30.5293L11.748 23.6494C11.9234 23.0885 11.7228 22.4775 11.249 22.1299L5.3623 17.8115C4.88059 17.458 5.12241 16.6947 5.71973 16.6826L13.1748 16.5352C13.7448 16.5238 14.2487 16.1616 14.4414 15.625L16.9121 8.74805Z" fill="url(#paint1_linear_403_228)" stroke="#FFFFF6" stroke-width="0.75"/>
<defs>
<linearGradient id="paint0_linear_403_228" x1="17.5" y1="1.00098" x2="17.5" y2="47.001" gradientUnits="userSpaceOnUse">
<stop stop-color="white"/>
<stop offset="0.182692" stop-color="#E8000B"/>
</linearGradient>
<linearGradient id="paint1_linear_403_228" x1="17.5" y1="6.00098" x2="17.5" y2="36.001" gradientUnits="userSpaceOnUse">
<stop offset="0.668269" stop-color="#FA4B54"/>
<stop offset="0.725962" stop-color="#FFFFF6"/>
</linearGradient>
</defs>
</svg>
