<svg width="35" height="49" viewBox="0 0 35 49" fill="none" xmlns="http://www.w3.org/2000/svg">
<path d="M2.10342 24.897C4.01562 32.1187 12.8496 42.2217 17.49 47.001C22.6189 42.2217 30.6445 31.1218 32.8766 24.897C35.6237 17.2363 34.3335 1.67745 17.4901 1.00098C1.36353 1.67745 -0.827361 17.1308 2.10342 24.897Z" fill="url(#paint0_linear_403_244)" stroke="#E8000B" stroke-width="2"/>
<path d="M17.0293 8.79004C17.1878 8.34883 17.8122 8.34883 17.9707 8.79004L20.4404 15.668C20.6507 16.2534 21.2013 16.6479 21.8232 16.6602L29.2773 16.8076C29.7553 16.817 29.9486 17.427 29.5635 17.71L23.6768 22.0293C23.1599 22.4086 22.9415 23.0747 23.1328 23.6865L25.2832 30.5664C25.4241 31.0173 24.9192 31.3935 24.5273 31.1299L18.3379 26.9619C17.8315 26.621 17.1685 26.621 16.6621 26.9619L10.4727 31.1299C10.0808 31.3935 9.57593 31.0173 9.7168 30.5664L11.8672 23.6865C12.0585 23.0747 11.8401 22.4086 11.3232 22.0293L5.43652 17.71C5.05135 17.427 5.24468 16.817 5.72266 16.8076L13.1768 16.6602C13.7987 16.6479 14.3493 16.2534 14.5596 15.668L17.0293 8.79004Z" fill="url(#paint1_linear_403_244)" stroke="#FFA2A2"/>
<defs>
<linearGradient id="paint0_linear_403_244" x1="17.5" y1="1.00098" x2="17.5" y2="47.001" gradientUnits="userSpaceOnUse">
<stop stop-color="white"/>
<stop offset="0.182692" stop-color="#FFDFDF" stop-opacity="0.9"/>
</linearGradient>
<linearGradient id="paint1_linear_403_244" x1="17.5" y1="6.00098" x2="17.5" y2="36.001" gradientUnits="userSpaceOnUse">
<stop offset="0.442308" stop-color="#FFA2A2"/>
<stop offset="0.490385" stop-color="#E8000B"/>
</linearGradient>
</defs>
</svg>
